<?xml version="1.0" encoding="UTF-8" standalone="no"?>
<svg
   xmlns:osb="http://www.openswatchbook.org/uri/2009/osb"
   xmlns:dc="http://purl.org/dc/elements/1.1/"
   xmlns:cc="http://creativecommons.org/ns#"
   xmlns:rdf="http://www.w3.org/1999/02/22-rdf-syntax-ns#"
   xmlns:svg="http://www.w3.org/2000/svg"
   xmlns="http://www.w3.org/2000/svg"
   xmlns:xlink="http://www.w3.org/1999/xlink"
   xmlns:sodipodi="http://sodipodi.sourceforge.net/DTD/sodipodi-0.dtd"
   xmlns:inkscape="http://www.inkscape.org/namespaces/inkscape"
   width="282.58737"
   height="153.36"
   fill="#03363d"
   version="1.1"
   id="svg4"
   sodipodi:docname="Node_Zendesk_logo.svg"
   inkscape:version="1.0.1 (3bc2e813f5, 2020-09-07)">
  <metadata
     id="metadata10">
    <rdf:RDF>
      <cc:Work
         rdf:about="">
        <dc:format>image/svg+xml</dc:format>
        <dc:type
           rdf:resource="http://purl.org/dc/dcmitype/StillImage" />
        <dc:title></dc:title>
      </cc:Work>
    </rdf:RDF>
  </metadata>
  <defs
     id="defs8">
    <linearGradient
       id="linearGradient2854"
       osb:paint="solid">
      <stop
         style="stop-color:#00b50d;stop-opacity:1;"
         offset="0"
         id="stop2852" />
    </linearGradient>
    <linearGradient
       inkscape:collect="always"
       xlink:href="#linearGradient2854"
       id="linearGradient2856"
       x1="251.12692"
       y1="73.995331"
       x2="361.60468"
       y2="73.995331"
       gradientUnits="userSpaceOnUse" />
    <clipPath
       clipPathUnits="userSpaceOnUse"
       id="clipPath848">
      <rect
         style="stroke-width:0.244"
         id="rect850"
         width="362.92868"
         height="187.24634"
         x="-0.0013194986"
         y="-0.096042767" />
    </clipPath>
    <clipPath
       clipPathUnits="userSpaceOnUse"
       id="clipPath867">
      <rect
         style="stroke-width:0.244"
         id="rect869"
         width="282.61887"
         height="187.12366"
         x="80.339996"
         y="0" />
    </clipPath>
    <clipPath
       clipPathUnits="userSpaceOnUse"
       id="clipPath888">
      <rect
         style="stroke-width:0.244"
         id="rect890"
         width="286.57745"
         height="155.25352"
         x="80.339996"
         y="-1.89352" />
    </clipPath>
  </defs>
  <sodipodi:namedview
     pagecolor="#ffffff"
     bordercolor="#666666"
     borderopacity="1"
     objecttolerance="10"
     gridtolerance="10"
     guidetolerance="10"
     inkscape:pageopacity="0"
     inkscape:pageshadow="2"
     inkscape:window-width="1990"
     inkscape:window-height="1120"
     id="namedview6"
     showgrid="false"
     inkscape:zoom="3.0991736"
     inkscape:cx="133.12"
     inkscape:cy="81.586977"
     inkscape:window-x="541"
     inkscape:window-y="91"
     inkscape:window-maximized="0"
     inkscape:current-layer="svg4"
     inkscape:document-rotation="0"
     fit-margin-top="0"
     fit-margin-left="0"
     fit-margin-right="0"
     fit-margin-bottom="0" />
  <g
     id="g882"
     clip-path="url(#clipPath888)"
     transform="translate(-80.339996)">
    <g
       id="g875">
      <g
         id="g857"
         clip-path="url(#clipPath867)">
        <g
           id="g844"
           clip-path="url(#clipPath848)">
          <path
             d="M 173.82,40.5 V 153.36 H 80.34 Z m 0,-40.5 A 46.74,46.74 0 1 1 80.34,0 Z m 15.4,153.37 a 46.74,46.74 0 0 1 93.48,0 z m 0,-40.5 V 0 h 93.5 l -93.5,112.86 z m 52.28,137.06 a 18.22,18.22 0 0 0 12.95,-5 l 6.42,6.93 c -4.24,4.36 -10.12,7.6 -19.26,7.6 -15.67,0 -25.8,-10.4 -25.8,-24.46 a 24,24 0 0 1 24.37,-24.47 c 15.56,0 24.38,11.84 23.6,28.26 H 227 c 1.3,6.82 6.1,11.17 14.47,11.17 m 11.2,-19 c -1,-6.37 -4.8,-11.06 -12.4,-11.06 -7.07,0 -12,4 -13.27,11.06 h 25.68 z M 0,249.4 28.3,220.64 H 0.67 v -9.02 h 40.76 v 9.2 l -28.3,28.75 h 28.7 v 9.03 H 0 Z m 73.6,0.52 a 18.22,18.22 0 0 0 12.95,-5 l 6.42,6.93 c -4.24,4.36 -10.12,7.6 -19.26,7.6 -15.67,0 -25.8,-10.4 -25.8,-24.46 a 24,24 0 0 1 24.37,-24.47 c 15.56,0 24.38,11.84 23.6,28.26 H 59.12 c 1.3,6.82 6.1,11.17 14.47,11.17 m 11.2,-19 c -1,-6.37 -4.8,-11.06 -12.4,-11.06 -7.07,0 -12,4 -13.27,11.06 H 84.8 Z m 72.23,4.03 c 0,-15 11.23,-24.44 23.6,-24.44 a 20.34,20.34 0 0 1 15.67,7.05 v -27.72 h 10 v 68.6 h -10 V 252 a 20.1,20.1 0 0 1 -15.76,7.42 c -12,0 -23.5,-9.5 -23.5,-24.43 m 39.82,-0.1 a 14.92,14.92 0 1 0 -14.91,15.32 c 8.6,0 14.9,-6.86 14.9,-15.32 m 73.48,13.6 9.06,-4.7 a 13.44,13.44 0 0 0 12.08,6.86 c 5.66,0 8.6,-2.9 8.6,-6.2 0,-3.76 -5.47,-4.6 -11.42,-5.83 -8,-1.7 -16.33,-4.33 -16.33,-14 0,-7.43 7.07,-14.3 18.2,-14.2 8.77,0 15.3,3.48 19,9.1 l -8.4,4.6 a 12.19,12.19 0 0 0 -10.57,-5.36 c -5.38,0 -8.12,2.63 -8.12,5.64 0,3.38 4.34,4.32 11.14,5.83 7.74,1.7 16.5,4.23 16.5,14 0,6.48 -5.66,15.22 -19.06,15.13 -9.8,0 -16.7,-3.95 -20.67,-10.9 m 66.9,-10.87 -7.93,8.65 v 12.2 h -10 v -68.6 h 10 v 44.93 l 21.23,-23.3 h 12.18 l -18.4,20.1 18.88,26.88 H 351.87 L 337.24,237.59 Z M 126.8,210.53 c -11.9,0 -21.85,7.7 -21.85,20.5 v 27.45 h 10.2 V 232.3 c 0,-7.7 4.43,-12.32 12,-12.32 7.57,0 11.33,4.6 11.33,12.32 v 26.18 h 10.14 v -27.45 c 0,-12.78 -10,-20.5 -21.85,-20.5"
             id="path2" />
          <path
             d="m 306.34108,134.70522 c -1.65667,0 -3.33807,-0.43368 -4.79692,-1.25287 l -15.25623,-8.79417 c -2.27483,-1.25287 -1.16214,-1.68655 -0.42035,-1.92749 3.04136,-1.03602 3.65951,-1.25286 6.89868,-3.05989 0.34618,-0.19274 0.79124,-0.12045 1.13743,0.0963 l 11.72033,6.77031 c 0.42035,0.24093 1.01378,0.24093 1.40941,0 l 45.66974,-25.6838 c 0.42035,-0.24094 0.69235,-0.7228 0.69235,-1.204688 V 48.281363 c 0,-0.505977 -0.272,-0.963749 -0.71708,-1.228776 L 307.03343,21.392945 c -0.42036,-0.240936 -0.98906,-0.240936 -1.40941,0 l -45.6203,25.683798 c -0.44507,0.240938 -0.71707,0.722799 -0.71707,1.228777 v 51.343478 c 0,0.481892 0.272,0.963752 0.71707,1.180602 l 12.51159,7.03533 c 6.79976,3.30082 10.9538,-0.57825 10.9538,-4.5055 V 52.666467 c 0,-0.722812 0.59344,-1.276969 1.33524,-1.276969 h 5.78599 c 0.71706,0 1.33523,0.554157 1.33523,1.276969 v 50.717053 c 0,8.81827 -4.9453,13.87792 -13.52538,13.87792 -2.64573,0 -4.72275,0 -10.50874,-2.79486 l -11.9676,-6.72211 c -2.96717,-1.66246 -4.79693,-4.77054 -4.79693,-8.119562 V 48.28143 c 0,-3.32493 1.82976,-6.457101 4.79693,-8.119559 l 45.62031,-25.683795 c 2.89298,-1.590179 6.72558,-1.590179 9.59385,0 l 45.66976,25.707885 c 2.96717,1.662458 4.79692,4.770539 4.79692,8.119559 v 51.343478 c 0,3.324932 -1.82975,6.433012 -4.79692,8.119562 l -45.66976,25.68379 c -1.45885,0.81919 -3.11553,1.25287 -4.79693,1.25287 z m 36.86714,-50.620679 c 0,-9.613362 -6.67614,-12.167287 -20.69604,-13.974296 -14.19298,-1.831126 -15.62712,-2.770773 -15.62712,-5.999316 0,-2.674387 1.2116,-6.240254 11.72034,-6.240254 9.37132,0 12.83303,1.975678 14.26716,8.143649 0.12361,0.578247 0.66761,1.011929 1.28577,1.011929 h 5.93436 c 0.37089,0 0.71705,-0.144552 0.96433,-0.409592 0.24726,-0.265028 0.37089,-0.626427 0.34616,-0.987839 C 340.4883,55.003531 333.24345,50.06435 318.6054,50.06435 c -13.03084,0 -20.79494,5.348773 -20.79494,14.335695 0,9.733824 7.73938,12.432301 20.22623,13.636987 14.9595,1.421521 16.12164,3.565854 16.12164,6.432998 0,4.963284 -4.10459,7.083527 -13.72318,7.083527 -12.09123,0 -14.73696,-2.963517 -15.62712,-8.818268 -0.0988,-0.626439 -0.64287,-1.084211 -1.31049,-1.084211 h -5.90962 c -0.7418,0 -1.31051,0.578247 -1.31051,1.276956 0,7.493119 4.17878,16.431847 24.18248,16.431847 14.44024,-0.02414 22.74833,-5.589722 22.74833,-15.27534 z"
             id="path60"
             style="fill:url(#linearGradient2856);fill-opacity:1;stroke-width:0.244;stroke-miterlimit:4;stroke-dasharray:none" />
        </g>
      </g>
    </g>
  </g>
</svg>
